<?xml version="1.0" standalone="no"?>
<!DOCTYPE svg PUBLIC "-//W3C//DTD SVG 20010904//EN"
 "http://www.w3.org/TR/2001/REC-SVG-20010904/DTD/svg10.dtd">
<svg version="1.0" xmlns="http://www.w3.org/2000/svg"
 width="1280.000000pt" height="1280.000000pt" viewBox="0 0 1280.000000 1280.000000"
 preserveAspectRatio="xMidYMid meet">
<metadata>
Created by potrace 1.14, written by Peter Selinger 2001-2017
</metadata>
<g transform="translate(0.000000,1280.000000) scale(0.100000,-0.100000)"
fill="#000000" stroke="none">
<path d="M6115 11556 c-888 -66 -1671 -318 -2420 -780 -345 -213 -619 -430
-966 -767 -65 -63 -99 -90 -99 -78 0 10 -5 21 -12 25 -6 4 -8 3 -5 -3 8 -12
-9 -28 -40 -37 -15 -5 -28 -1 -43 14 -27 27 -50 12 -50 -34 l-1 -31 -18 21
c-13 17 -22 19 -35 12 -11 -6 -27 -6 -46 1 -27 9 -31 7 -45 -17 -8 -15 -14
-23 -15 -18 0 6 -9 0 -20 -12 -12 -12 -17 -28 -14 -39 4 -14 3 -15 -4 -4 -12
16 -27 -3 -16 -21 5 -8 2 -9 -9 -5 -10 3 -17 3 -17 -2 0 -5 -10 -19 -23 -32
-27 -29 -96 -114 -117 -145 -8 -12 -40 -55 -71 -96 -31 -40 -103 -145 -161
-233 -489 -748 -780 -1599 -860 -2515 -16 -185 -16 -681 0 -875 62 -749 255
-1429 590 -2078 345 -669 777 -1206 1368 -1703 666 -560 1497 -964 2359 -1149
217 -46 545 -92 745 -105 205 -13 633 -14 800 -1 524 41 994 142 1490 321 343
123 729 315 1073 534 148 94 451 319 582 432 391 338 739 730 1019 1149 714
1069 1028 2375 875 3645 -36 303 -95 607 -159 826 -40 136 -72 239 -82 264 -6
14 -23 61 -38 105 -15 44 -42 114 -59 155 -17 41 -31 82 -31 90 0 13 -1 13
-10 0 -8 -12 -10 -11 -10 7 0 30 -21 73 -35 73 -16 0 -55 43 -56 61 0 8 -4 4
-9 -8 -12 -30 -34 -29 -48 2 -15 32 -46 23 -39 -12 2 -13 0 -26 -5 -29 -15
-10 -36 15 -42 51 -4 19 -11 35 -16 35 -5 0 -7 -6 -4 -14 3 -8 1 -23 -6 -33
-10 -16 -10 -15 -5 5 5 16 2 22 -10 22 -11 0 -15 5 -11 16 3 8 2 13 -3 10 -10
-6 -21 26 -21 62 0 12 -4 22 -10 22 -5 0 -7 -8 -3 -17 3 -10 3 -15 -1 -11 -4
3 -8 12 -10 20 -1 7 -5 19 -9 25 -4 7 -3 22 4 34 6 12 7 24 3 28 -5 3 -10 17
-12 30 -3 32 -9 38 -24 23 -9 -9 -9 -15 0 -24 7 -7 12 -17 12 -22 0 -20 -51
49 -84 114 -53 103 -93 169 -225 368 -310 469 -649 839 -1126 1228 -226 185
-649 453 -920 583 -149 72 -255 121 -304 141 -25 10 -80 31 -121 48 -436 173
-928 289 -1421 336 -227 22 -630 27 -844 12z m1019 -1427 c44 -5 89 -9 99 -10
24 0 21 -23 -8 -73 l-25 -43 90 -38 c255 -107 502 -290 688 -508 175 -207 319
-539 348 -804 6 -60 6 -63 -20 -74 -14 -7 -26 -16 -26 -20 0 -4 -13 -12 -29
-17 -22 -8 -31 -7 -35 1 -2 7 -5 -1 -5 -17 -2 -50 -10 -24 -30 95 -38 217
-139 459 -268 639 -85 119 -231 266 -353 353 -101 73 -307 179 -430 221 -540
186 -1212 16 -1608 -407 -235 -250 -372 -535 -412 -861 -14 -107 -8 -420 8
-491 15 -62 23 -134 12 -110 -8 19 -9 19 -9 -2 -1 -18 -7 -23 -28 -25 -85 -6
-93 -5 -98 11 -51 161 -73 394 -56 589 14 160 32 246 88 416 25 77 45 157 45
179 -1 31 2 37 15 33 11 -5 14 -1 10 13 -3 13 3 22 22 31 14 7 21 15 14 17 -7
2 -10 10 -7 18 3 8 12 11 20 8 10 -4 12 0 8 11 -3 9 -2 16 3 16 5 0 35 35 65
78 31 42 69 91 84 108 115 122 150 157 218 217 241 210 563 349 946 407 70 10
86 13 113 23 9 4 25 10 35 13 9 4 44 9 77 11 33 3 62 7 65 10 6 6 265 -6 374
-18z m-4544 -235 c0 -8 -4 -12 -10 -9 -5 3 -10 10 -10 16 0 5 5 9 10 9 6 0 10
-7 10 -16z m5558 -94 c-4 -45 -47 -78 -85 -64 -15 5 -34 21 -43 36 -13 25 -13
29 5 45 11 11 38 20 60 21 21 2 41 5 44 8 11 11 22 -16 19 -46z m-1314 -67
c78 -4 106 -9 102 -18 -2 -7 -92 -145 -199 -306 -165 -250 -277 -433 -223
-365 20 24 35 12 18 -14 -16 -26 -15 -30 6 -30 19 0 464 79 653 115 69 14 135
25 148 25 l22 0 -22 -32 c-13 -18 -68 -90 -124 -161 -255 -325 -424 -546 -484
-634 l-42 -63 29 0 c15 0 77 9 138 21 60 11 174 31 254 45 124 21 218 38 318
60 12 2 22 0 22 -4 0 -5 -33 -45 -72 -89 -114 -124 -138 -152 -138 -158 0 -4
6 -3 13 2 18 11 -52 -75 -103 -127 -25 -25 -83 -86 -130 -135 -47 -50 -101
-101 -120 -112 -74 -45 -897 -961 -1136 -1264 -92 -116 -115 -139 -82 -79 49
89 73 130 281 475 216 359 258 426 462 745 144 225 207 331 201 337 -6 7 -459
-75 -618 -111 -45 -10 -48 -15 240 379 252 343 307 423 300 430 -2 2 -69 -7
-148 -21 -488 -85 -646 -110 -654 -103 -5 4 11 36 36 71 66 92 189 274 490
726 l269 402 93 0 c51 0 141 -3 200 -7z m407 -141 c327 -165 587 -471 689
-811 35 -120 50 -229 50 -376 0 -293 -70 -532 -227 -768 -122 -185 -314 -357
-514 -457 -128 -65 -310 -119 -402 -120 l-37 0 6 62 c9 90 41 117 194 169 186
62 299 130 441 266 227 218 345 477 356 784 6 163 -6 263 -48 395 -104 328
-330 578 -651 721 -57 25 -105 47 -107 49 -3 3 61 115 81 141 11 15 66 -3 169
-55z m-1051 -40 c0 -48 -4 -92 -8 -98 -4 -6 -33 -22 -64 -36 -153 -70 -332
-231 -442 -398 -75 -114 -120 -214 -158 -355 -28 -103 -35 -341 -14 -465 53
-305 219 -573 471 -762 44 -33 81 -64 83 -68 2 -4 -7 -20 -20 -36 -13 -16 -32
-46 -42 -66 -11 -21 -23 -38 -28 -38 -6 0 -44 24 -86 53 -252 174 -446 462
-529 784 -30 121 -36 158 -40 299 -8 241 16 371 110 579 135 300 400 559 697
681 30 12 58 20 62 17 5 -2 8 -43 8 -91z m-2486 -57 c5 -18 -10 -58 -58 -155
-36 -71 -80 -153 -100 -182 l-35 -53 104 -3 c58 -1 105 -5 105 -8 0 -11 -45
-70 -104 -134 l-59 -65 89 -2 c95 -3 134 -9 134 -21 0 -10 -44 -55 -339 -346
-144 -142 -265 -256 -268 -253 -6 6 88 219 158 359 22 43 39 82 39 86 0 11
-124 -10 -201 -32 -29 -9 -54 -14 -57 -12 -6 7 30 55 118 157 44 51 80 96 80
102 0 6 -21 7 -55 3 -30 -3 -55 -2 -55 3 0 5 -30 2 -67 -5 -36 -8 -69 -12 -72
-9 -12 13 604 595 630 595 4 0 10 -11 13 -25z m6347 -27 c-5 -13 -45 -97 -89
-188 -43 -91 -80 -169 -80 -175 -1 -6 38 -8 105 -6 l107 3 -24 -30 c-14 -17
-51 -62 -84 -101 -32 -40 -56 -75 -52 -78 3 -4 51 -6 106 -4 81 2 100 0 100
-12 0 -7 -129 -144 -286 -303 -157 -159 -281 -278 -276 -264 5 14 39 86 74
160 93 193 122 260 116 266 -3 2 -62 -9 -132 -27 -70 -17 -129 -29 -132 -26
-4 3 26 39 65 79 44 46 71 67 71 56 0 -9 -7 -23 -15 -32 -15 -15 -20 -36 -8
-36 3 0 25 17 47 39 119 111 141 131 148 131 4 0 8 7 8 15 0 8 -5 15 -12 15
-6 0 -9 3 -5 6 3 4 0 13 -8 20 -21 22 -108 17 -190 -11 -41 -13 -94 -28 -117
-31 l-43 -7 30 32 c140 150 553 531 575 531 6 0 6 -9 1 -22z m-6571 -8 c8 -5
12 -11 10 -14 -3 -2 -57 -8 -120 -12 -83 -5 -112 -3 -105 4 24 26 184 42 215
22z m-74 -50 c26 -10 26 -11 8 -31 -26 -29 -59 -45 -132 -63 -66 -17 -114 -42
-175 -89 -28 -22 -35 -24 -30 -10 6 16 5 16 -10 4 -9 -7 -14 -18 -10 -24 3 -5
1 -7 -4 -4 -12 8 -65 -48 -87 -91 -19 -39 -43 -128 -50 -192 -18 -151 61 -304
221 -430 29 -23 30 -27 19 -52 -11 -27 -12 -27 -46 -10 -19 9 -67 48 -105 86
-152 154 -201 359 -131 551 60 166 200 293 371 339 110 29 123 30 161 16z
m6390 -11 c11 -19 -19 -35 -108 -57 -125 -31 -174 -57 -251 -133 -200 -199
-187 -492 31 -688 56 -51 64 -62 52 -75 -20 -25 -35 -19 -94 35 -228 208 -248
537 -44 754 32 35 82 78 110 96 88 57 283 101 304 68z m-5970 -137 c228 -222
202 -604 -55 -805 -115 -91 -235 -133 -361 -128 l-25 1 31 30 c22 23 51 36
108 50 171 43 301 158 356 315 31 86 30 224 -2 314 -12 36 -29 71 -37 77 -8 6
-11 15 -8 21 8 13 -29 53 -50 53 -21 0 -63 39 -63 57 0 8 4 12 9 9 5 -4 7 3 4
14 -7 26 3 50 20 50 8 0 40 -26 73 -58z m6374 -7 c64 -53 115 -132 141 -219
28 -93 23 -252 -10 -334 -51 -127 -164 -246 -294 -310 -67 -32 -165 -56 -211
-50 l-29 3 27 26 c17 17 46 30 82 37 159 32 334 193 379 350 13 43 16 83 13
162 -4 91 -8 114 -33 164 -16 32 -55 86 -87 119 -56 60 -66 76 -51 91 10 10
20 5 73 -39z m975 -555 c-3 -5 -10 -10 -16 -10 -5 0 -9 5 -9 10 0 6 7 10 16
10 8 0 12 -4 9 -10z m98 -225 c-3 -9 -8 -14 -10 -11 -3 3 -2 9 2 15 9 16 15
13 8 -4z m-7677 -1002 c14 -9 15 -12 4 -12 -8 -1 -26 -14 -40 -30 l-24 -30
-18 30 c-10 16 -25 29 -33 29 -22 0 -18 18 5 25 11 3 25 15 31 26 10 20 11 20
33 -3 12 -13 31 -28 42 -35z m1411 -214 c43 -6 92 -16 108 -23 37 -16 67 -44
60 -57 -4 -5 -219 -9 -522 -9 l-517 0 -63 41 c-34 23 -60 45 -57 50 8 13 896
11 991 -2z m4218 3 c32 -6 26 -15 -41 -57 l-54 -35 -478 1 c-262 0 -486 4
-497 9 -11 5 -15 9 -8 9 7 1 21 11 32 22 15 17 38 23 103 30 46 5 110 13 143
18 60 9 754 12 800 3z m-5308 -144 c68 -68 123 -128 123 -133 0 -8 -100 -12
-322 -13 -177 -1 -324 -4 -326 -7 -2 -2 10 -23 27 -47 33 -44 41 -88 17 -88
-8 0 -38 22 -68 48 -29 26 -98 86 -152 132 l-100 85 330 5 329 5 3 68 c2 37 6
67 10 67 4 0 62 -55 129 -122z m5563 53 c0 -80 -5 -76 110 -85 177 -14 299
-30 294 -38 -3 -4 4 -8 15 -8 12 0 21 -5 21 -11 0 -6 7 -9 15 -5 9 3 15 0 15
-9 0 -8 5 -15 11 -15 5 0 7 -4 4 -10 -7 -11 -755 -15 -755 -4 0 8 253 253 263
254 4 0 7 -31 7 -69z m-1430 -91 c12 -12 20 -33 20 -52 -1 -39 -23 -73 -41
-62 -8 4 -10 3 -5 -4 5 -8 -1 -12 -15 -12 -18 0 -19 2 -9 15 11 13 11 20 0 40
-7 13 -16 22 -21 20 -16 -10 -39 8 -39 31 0 44 74 60 110 24z m1277 -255 c16
-11 64 -15 219 -17 l199 -3 3 -156 2 -156 -97 -85 c-316 -272 -394 -338 -453
-379 -36 -26 -74 -56 -84 -68 -19 -21 -19 -21 1 -21 11 0 80 11 153 25 73 14
136 22 141 19 5 -3 9 -174 9 -390 l0 -384 -310 0 -310 0 0 224 c0 183 3 227
14 238 8 7 49 42 90 78 41 36 75 69 75 74 1 9 -43 6 -261 -19 -76 -9 -145 -15
-153 -13 -10 2 98 116 290 307 167 168 303 306 301 309 -3 2 -157 4 -343 5
l-338 2 0 195 0 195 386 3 c328 2 389 4 399 17 16 19 40 19 67 0z m-4607 -29
c112 -29 201 -101 243 -195 23 -52 36 -209 29 -349 -4 -80 -6 -85 -41 -121
-22 -23 -60 -47 -98 -62 -35 -13 -63 -26 -63 -29 1 -3 27 -17 59 -31 71 -32
133 -105 156 -181 35 -119 29 -263 -16 -383 -30 -82 -120 -172 -204 -206 l-60
-24 -535 0 -535 0 0 63 c1 34 2 393 3 797 l2 735 503 0 c403 0 514 -3 557 -14z
m838 -583 l2 -593 395 0 395 0 0 -205 0 -205 -602 2 -603 3 -3 785 c-1 432 0
791 3 798 3 10 51 12 207 10 l203 -3 3 -592z m2812 402 l0 -195 -27 -6 c-14
-4 -92 -4 -172 -1 -80 2 -170 3 -198 0 l-53 -6 0 -598 0 -599 -217 2 -218 3 0
600 0 600 -190 0 -190 0 -2 150 c-2 83 1 156 5 162 5 8 95 28 208 47 l199 34
428 1 427 1 0 -195z m-1430 55 c0 -64 -2 -69 -17 -60 -10 5 -35 16 -55 24 -21
8 -38 20 -38 25 0 8 97 81 107 81 2 0 3 -32 3 -70z m-130 -173 c0 -93 16 -113
84 -104 l43 6 7 -46 c3 -25 6 -293 6 -594 l0 -549 -219 0 c-191 0 -220 2 -225
16 -7 19 2 1115 9 1189 6 49 7 51 53 69 63 24 225 83 235 85 4 0 7 -32 7 -72z
m-784 -1705 c175 -90 176 -337 2 -425 -104 -53 -250 -26 -313 57 -29 38 -55
107 -55 145 0 54 31 133 68 173 71 75 205 98 298 50z m-648 -34 l-3 -53 -57
-3 -58 -3 -2 -177 -3 -177 -55 0 -55 0 -3 177 -2 177 -63 3 -62 3 -3 39 c-6
68 -12 66 188 66 l181 0 -3 -52z m1202 -32 c0 -47 4 -87 8 -90 4 -2 39 36 76
85 l68 89 74 0 c41 0 74 -4 74 -8 0 -5 -12 -19 -26 -33 -15 -13 -53 -57 -86
-97 -71 -87 -74 -73 43 -217 44 -54 79 -101 79 -106 0 -11 -130 -12 -145 -1
-6 4 -39 43 -74 87 -35 44 -67 81 -71 83 -12 5 -20 -38 -20 -111 l0 -68 -52 3
-53 3 -3 233 -2 232 55 0 55 0 0 -84z m920 34 l0 -50 -87 0 c-49 0 -94 -4
-101 -9 -8 -5 -12 -21 -10 -37 3 -29 3 -29 80 -32 84 -3 88 -6 80 -64 l-4 -37
-77 -3 -76 -3 0 -35 0 -35 98 -3 98 -3 -3 -52 -3 -52 -155 0 -155 0 -3 220
c-1 121 0 225 2 232 4 10 44 13 161 13 l155 0 0 -50z m535 -60 c47 -60 90
-110 95 -110 5 0 11 48 12 108 l3 107 55 0 55 0 0 -230 0 -230 -45 -3 -45 -2
-95 120 c-52 66 -100 120 -107 120 -9 0 -13 -33 -15 -117 l-3 -118 -50 0 -50
0 -3 233 -2 232 54 0 54 0 87 -110z m525 -603 c-108 -103 -194 -177 -199 -171
-8 8 242 233 259 233 3 1 -24 -27 -60 -62z m1520 9 c0 -2 -13 -45 -30 -95 -17
-54 -54 -130 -91 -191 -33 -56 -58 -104 -55 -107 3 -3 25 -6 48 -7 120 -5 138
-7 138 -14 0 -4 -11 -19 -25 -34 -14 -15 -25 -30 -25 -34 0 -3 -22 -31 -50
-61 -27 -30 -50 -58 -50 -63 0 -5 47 -8 104 -7 66 1 109 -2 116 -9 8 -8 -6
-28 -55 -75 -36 -35 -124 -122 -194 -194 -123 -124 -161 -163 -295 -304 -32
-34 -60 -60 -62 -58 -4 4 88 216 154 357 22 47 43 95 47 108 6 22 5 23 -32 17
-36 -6 -177 -40 -215 -51 -32 -10 -19 12 55 92 190 204 193 209 132 199 -19
-3 -52 -7 -72 -10 l-38 -4 30 14 c17 8 38 14 48 15 9 0 17 5 17 11 0 6 -7 8
-16 5 -20 -8 -170 -46 -180 -46 -13 0 76 88 265 264 274 254 331 302 331 282z
m-6400 -21 c0 -3 -13 -29 -29 -58 -16 -28 -37 -72 -47 -97 -10 -25 -36 -79
-60 -120 -66 -117 -68 -114 54 -111 56 1 102 0 102 -4 0 -7 -84 -108 -139
-167 l-35 -38 112 0 c91 0 112 -3 112 -14 0 -8 -114 -131 -254 -273 -139 -142
-270 -276 -290 -298 l-36 -40 41 95 c22 52 72 160 111 238 38 79 68 145 66
147 -2 1 -43 -6 -93 -16 -49 -10 -92 -15 -95 -12 -3 3 1 8 8 10 7 3 25 15 40
27 15 13 35 25 45 29 9 3 17 11 17 17 0 6 5 8 11 5 6 -4 19 2 29 12 10 11 38
32 62 48 25 16 53 44 63 62 10 19 36 51 57 71 21 20 38 41 38 46 0 11 -219 -2
-280 -16 -25 -6 -71 -24 -103 -40 -32 -16 -63 -28 -69 -26 -10 4 317 324 471
462 68 60 91 76 91 61z m6120 -35 c22 -14 11 -18 -85 -30 -50 -6 -100 -14
-112 -17 -13 -3 -23 -1 -23 4 0 14 120 52 165 52 22 1 47 -3 55 -9z m10 -60
c13 -9 12 -13 -8 -30 -27 -23 -124 -60 -155 -60 -13 0 -27 -4 -32 -9 -6 -5
-28 -14 -50 -21 -79 -25 -164 -102 -201 -184 -67 -148 -70 -280 -7 -413 28
-60 107 -152 159 -183 37 -23 47 -66 18 -77 -22 -8 -120 63 -166 121 -154 195
-167 453 -31 638 54 73 79 97 149 143 89 58 161 82 259 84 28 0 57 -4 65 -9z
m-6416 -9 c18 -7 17 -9 -7 -28 -14 -11 -48 -23 -74 -27 -68 -9 -218 -86 -284
-145 -102 -91 -149 -191 -149 -317 0 -124 60 -237 184 -349 68 -61 75 -70 62
-84 -22 -21 -54 -2 -137 79 -117 115 -163 222 -163 380 0 86 2 101 32 164 23
50 53 89 110 146 87 87 173 137 294 169 79 21 103 24 132 12z m387 -103 c42
-32 100 -112 132 -185 36 -81 54 -222 39 -299 -15 -72 -65 -195 -101 -248 -93
-135 -266 -235 -409 -236 -40 0 -41 1 -30 20 13 20 41 33 147 65 136 42 250
154 313 308 34 84 44 170 29 265 -14 93 -49 161 -117 232 -73 76 -75 131 -3
78z m6427 -37 c98 -82 169 -206 186 -321 22 -149 -64 -338 -204 -453 -83 -68
-227 -130 -332 -142 -47 -6 -58 -5 -58 7 0 25 32 45 110 68 124 36 201 83 283
170 87 93 118 160 125 271 8 134 -30 222 -146 341 -62 63 -65 69 -54 93 14 30
16 29 90 -34z"/>
<path d="M8017 7000 c6 -23 28 -27 36 -6 4 10 1 13 -9 9 -7 -3 -14 0 -14 6 0
6 -4 11 -9 11 -5 0 -7 -9 -4 -20z"/>
<path d="M4060 6291 l0 -131 216 0 c251 0 270 5 304 75 18 38 20 49 10 84 -6
22 -21 53 -34 68 l-24 28 -236 3 -236 3 0 -130z"/>
<path d="M4055 5860 c-7 -11 -5 -208 2 -227 8 -19 431 -18 477 1 94 39 103
168 16 220 -24 14 -63 16 -258 16 -139 0 -233 -4 -237 -10z"/>
<path d="M5885 4703 c-120 -31 -127 -201 -9 -242 36 -12 44 -12 77 4 105 49
105 188 1 231 -35 15 -37 15 -69 7z"/>
<path d="M2463 10003 c-7 -2 -13 -10 -13 -18 0 -7 -7 -18 -16 -26 -13 -10 -17
-10 -25 2 -7 11 -9 11 -9 -4 0 -10 -4 -15 -10 -12 -5 3 -10 1 -10 -5 0 -20 31
-22 51 -4 18 16 56 76 47 73 -2 0 -9 -3 -15 -6z"/>
<path d="M2641 9964 c0 -11 3 -14 6 -6 3 7 2 16 -1 19 -3 4 -6 -2 -5 -13z"/>
<path d="M11192 8670 c0 -14 2 -19 5 -12 2 6 2 18 0 25 -3 6 -5 1 -5 -13z"/>
<path d="M11230 8599 c0 -11 4 -18 10 -14 5 3 7 12 3 20 -7 21 -13 19 -13 -6z"/>
<path d="M11258 8590 c-3 -16 -1 -30 4 -30 4 0 8 14 8 30 0 17 -2 30 -4 30 -2
0 -6 -13 -8 -30z"/>
<path d="M11370 8606 c0 -14 26 -46 36 -46 2 0 -2 14 -11 30 -17 33 -25 38
-25 16z"/>
<path d="M11390 8539 c0 -5 5 -7 10 -4 6 3 10 8 10 11 0 2 -4 4 -10 4 -5 0
-10 -5 -10 -11z"/>
<path d="M11456 8501 c-4 -7 -5 -15 -2 -18 9 -9 19 4 14 18 -4 11 -6 11 -12 0z"/>
</g>
</svg>
